<?xml version="1.0" standalone="no"?>
<!DOCTYPE svg PUBLIC "-//W3C//DTD SVG 20010904//EN"
 "http://www.w3.org/TR/2001/REC-SVG-20010904/DTD/svg10.dtd">
<svg version="1.0" xmlns="http://www.w3.org/2000/svg"
 width="292.000000pt" height="292.000000pt" viewBox="0 0 292.000000 292.000000"
 preserveAspectRatio="xMidYMid meet">
<metadata>
Created by potrace 1.11, written by Peter Selinger 2001-2013
</metadata>
<g transform="translate(0.000000,292.000000) scale(0.100000,-0.100000)"
fill="#000000" stroke="none">
<path d="M1350 2875 c-186 -19 -262 -35 -394 -86 -27 -11 -55 -19 -62 -19 -8
0 -14 -4 -14 -10 0 -5 -5 -10 -12 -10 -17 0 -140 -62 -162 -82 -19 -17 -31
-22 -49 -19 -5 1 -6 -3 -2 -9 3 -5 2 -10 -3 -10 -6 0 -32 -18 -58 -40 -27 -22
-53 -40 -57 -40 -5 0 -18 -11 -29 -25 -11 -14 -24 -22 -30 -19 -6 4 -8 3 -5
-3 3 -5 -17 -32 -44 -59 -89 -86 -216 -271 -269 -389 -12 -27 -28 -63 -36 -79
-8 -16 -14 -33 -14 -37 0 -4 -5 -20 -12 -36 -15 -38 -18 -48 -24 -85 -3 -18
-8 -40 -11 -48 -4 -8 -14 -62 -22 -120 -12 -80 -14 -143 -9 -265 7 -181 6
-175 43 -310 29 -110 72 -222 108 -288 37 -66 89 -150 109 -176 10 -13 15 -27
12 -32 -3 -5 1 -9 10 -9 8 0 16 -4 18 -8 5 -14 90 -113 121 -140 15 -14 25
-32 23 -38 -3 -8 1 -11 8 -8 8 3 24 -5 37 -18 13 -13 54 -45 92 -73 37 -27 67
-53 67 -58 0 -4 4 -6 9 -3 4 3 28 -7 52 -22 73 -47 252 -120 344 -142 28 -7
59 -16 70 -20 52 -23 392 -37 490 -21 133 23 180 34 280 68 55 19 109 37 120
40 11 3 31 14 45 23 14 9 40 23 58 31 17 8 32 17 32 21 0 5 5 8 11 8 6 0 30
13 53 30 24 16 46 27 50 25 3 -3 4 -2 1 1 -2 4 15 20 38 37 23 17 47 38 54 46
7 9 13 13 13 10 0 -9 129 120 170 170 148 183 261 424 300 640 5 26 11 57 15
71 10 43 6 350 -6 429 -7 42 -20 106 -30 144 -10 37 -15 67 -12 67 3 0 1 6 -5
13 -6 6 -22 43 -36 80 -62 165 -191 363 -316 485 -14 13 -24 29 -22 36 2 6 1
8 -3 4 -4 -4 -35 17 -69 46 -35 29 -77 61 -94 72 -18 10 -32 22 -32 26 0 4 -6
8 -13 8 -7 0 -22 8 -33 18 -10 9 -50 33 -89 52 -38 19 -72 37 -75 40 -3 3 -14
7 -25 8 -11 2 -24 7 -30 11 -5 4 -30 13 -55 21 -25 7 -49 17 -54 22 -6 4 -22
8 -36 8 -14 0 -30 4 -35 9 -6 5 -28 11 -50 14 -22 3 -56 8 -75 10 -19 3 -70 8
-113 12 -43 3 -83 7 -90 9 -7 2 -68 -3 -137 -9z"/>
<path d="M2686 98 c-9 -37 -7 -73 6 -86 7 -7 31 -12 55 -12 40 0 44 2 50 30 3
16 11 30 17 30 6 0 4 5 -4 10 -8 5 -11 10 -6 10 5 0 -3 9 -17 20 -36 28 -93
27 -101 -2z"/>
</g>
</svg>
