<?xml version="1.0" standalone="no"?>
<!DOCTYPE svg PUBLIC "-//W3C//DTD SVG 20010904//EN"
 "http://www.w3.org/TR/2001/REC-SVG-20010904/DTD/svg10.dtd">
<svg version="1.0" xmlns="http://www.w3.org/2000/svg"
 width="1024.000000pt" height="1024.000000pt" viewBox="0 0 1024.000000 1024.000000"
 preserveAspectRatio="xMidYMid meet">
<metadata>
Created by potrace 1.11, written by Peter Selinger 2001-2013
</metadata>
<g transform="translate(0.000000,1024.000000) scale(0.100000,-0.100000)"
fill="#000000" stroke="none">
<path d="M4765 10159 c-1677 -111 -3192 -1049 -4041 -2501 -374 -639 -591
-1309 -670 -2063 -25 -238 -25 -752 0 -990 91 -876 381 -1667 873 -2382 656
-956 1661 -1680 2768 -1994 404 -115 736 -169 1173 -191 556 -28 1131 42 1682
204 109 32 432 143 462 158 9 5 83 39 165 75 408 183 822 443 1189 747 123
103 417 390 532 522 145 164 267 322 391 506 240 357 386 634 536 1015 363
925 440 1973 218 2960 -196 874 -650 1720 -1267 2365 -159 165 -336 329 -495
456 -777 624 -1692 999 -2681 1099 -189 19 -645 27 -835 14z m645 -519 c1287
-96 2430 -693 3235 -1690 550 -681 880 -1482 982 -2382 13 -113 17 -235 17
-468 0 -433 -31 -698 -129 -1097 -258 -1045 -872 -1951 -1765 -2601 -68 -50
-126 -89 -128 -88 -2 2 11 44 28 92 246 694 178 1506 -180 2155 -125 226 -270
420 -455 604 -418 420 -933 676 -1540 767 -141 21 -589 18 -740 -6 -345 -52
-682 -172 -976 -346 -344 -204 -690 -541 -896 -875 -360 -581 -483 -1261 -353
-1939 25 -129 76 -310 119 -420 17 -44 29 -81 27 -83 -4 -4 -191 125 -291 201
-236 179 -531 455 -707 661 -701 819 -1078 1797 -1105 2865 -26 1030 293 2027
908 2841 256 340 586 668 924 921 552 412 1203 696 1890 823 137 25 421 61
540 68 141 8 470 6 595 -3z m110 -6005 l0 -455 180 -2 180 -3 -332 -456 c-183
-251 -337 -458 -342 -459 -4 -1 -158 205 -342 457 l-334 458 180 3 180 2 0
455 0 455 315 0 315 0 0 -455z m-1440 -1070 l0 -595 1115 0 1115 0 0 595 0
595 235 0 235 0 0 -845 0 -845 -1580 0 -1580 0 0 845 0 845 230 0 230 0 0
-595z"/>
<path d="M2043 7659 c-277 -36 -430 -147 -505 -365 -53 -153 -59 -230 -67
-829 -8 -512 -10 -555 -29 -627 -51 -189 -138 -284 -307 -338 -55 -17 -105
-24 -235 -29 l-165 -6 0 -120 0 -120 155 -6 c172 -6 251 -23 343 -71 103 -55
169 -148 209 -296 20 -72 22 -114 28 -617 5 -301 13 -578 19 -625 53 -391 221
-547 628 -580 179 -14 268 -13 282 4 8 9 11 51 9 122 l-3 109 -137 6 c-349 17
-459 99 -498 374 -5 39 -10 259 -10 490 0 462 -10 657 -40 782 -44 185 -138
307 -298 385 l-87 43 87 43 c140 68 231 173 282 325 42 124 48 213 56 792 8
595 11 628 60 725 68 134 203 190 455 190 84 0 115 4 124 14 8 9 11 51 9 122
l-3 109 -150 1 c-82 1 -178 -2 -212 -7z"/>
<path d="M3057 7593 c-4 -3 -7 -588 -7 -1300 l0 -1293 578 0 c358 0 611 4 667
11 324 40 525 162 638 389 68 137 82 198 81 360 0 121 -3 143 -27 214 -35 100
-67 154 -134 227 -63 67 -141 122 -229 159 l-63 26 63 42 c87 57 157 137 205
232 52 104 64 169 59 305 -8 173 -65 301 -189 425 -113 113 -264 176 -474 200
-99 11 -1158 14 -1168 3z m1201 -347 c162 -41 248 -136 271 -296 28 -201 -58
-339 -249 -402 -61 -21 -88 -22 -467 -26 l-403 -4 0 377 0 377 393 -5 c317 -4
404 -8 455 -21z m32 -1080 c159 -35 273 -121 322 -244 33 -83 33 -251 -1 -335
-32 -80 -113 -166 -191 -201 -114 -51 -160 -56 -602 -56 l-408 0 0 423 c0 233
3 427 8 431 4 5 185 6 402 3 316 -4 410 -8 470 -21z"/>
<path d="M5557 7593 c-4 -3 -7 -588 -7 -1300 l0 -1293 578 0 c358 0 611 4 667
11 324 40 525 162 638 389 68 137 82 198 81 360 0 121 -3 143 -27 214 -35 100
-67 154 -134 227 -63 67 -141 122 -229 159 l-63 26 63 42 c87 57 157 137 205
232 52 104 64 169 59 305 -8 173 -65 301 -189 425 -113 113 -264 176 -474 200
-99 11 -1158 14 -1168 3z m1201 -347 c162 -41 248 -136 271 -296 28 -201 -58
-339 -249 -402 -61 -21 -88 -22 -467 -26 l-403 -4 0 377 0 377 393 -5 c317 -4
404 -8 455 -21z m32 -1080 c159 -35 273 -121 322 -244 33 -83 33 -251 -1 -335
-32 -80 -113 -166 -191 -201 -114 -51 -160 -56 -602 -56 l-408 0 0 423 c0 233
3 427 8 431 4 5 185 6 402 3 316 -4 410 -8 470 -21z"/>
<path d="M7817 7573 c-13 -12 -8 -218 5 -231 8 -8 50 -12 124 -12 251 0 386
-57 454 -190 49 -97 52 -130 60 -725 8 -587 14 -667 59 -796 56 -163 149 -265
310 -336 l62 -28 -82 -39 c-143 -69 -239 -176 -290 -323 -45 -131 -51 -209
-59 -798 -6 -442 -11 -572 -22 -615 -59 -219 -162 -283 -483 -298 l-140 -7 -3
-109 c-2 -71 1 -113 9 -122 14 -17 103 -18 282 -4 407 33 575 189 628 580 6
47 14 324 19 625 6 503 8 545 28 617 40 148 106 241 209 296 92 48 171 65 343
71 l155 6 0 120 0 120 -155 6 c-172 6 -251 23 -343 71 -103 55 -169 148 -209
296 -19 72 -21 115 -29 627 -8 599 -14 676 -67 829 -77 222 -228 330 -516 366
-90 11 -339 14 -349 3z"/>
</g>
</svg>
